<?xml version="1.0" encoding="utf-8"?>
<!-- Generator: Adobe Illustrator 19.1.0, SVG Export Plug-In . SVG Version: 6.00 Build 0)  -->
<svg version="1.1" xmlns="http://www.w3.org/2000/svg" xmlns:xlink="http://www.w3.org/1999/xlink" x="0px" y="0px" width="330px"
	 height="1700px" viewBox="0 0 330 1700" style="enable-background:new 0 0 330 1700;" xml:space="preserve">
<style type="text/css">
	.st0{fill:#3D5265;}
	.st1{fill:#FFFFFF;}
	.st2{fill-rule:evenodd;clip-rule:evenodd;fill:#00BFD6;}
	.st3{fill-rule:evenodd;clip-rule:evenodd;fill:#002239;}
	.st4{fill:#2AC6D6;}
	.st5{fill:#00BFD6;}
	.st6{fill:#5C7686;}
	.st7{fill-rule:evenodd;clip-rule:evenodd;fill:#3D5265;}
	.st8{fill:#A4A4A4;}
	.st9{fill-rule:evenodd;clip-rule:evenodd;fill:#26B9C7;}
</style>
<g id="Иконка_6_">
	<g id="_x31__16_">
		<g>
			<path class="st0" d="M68.9,1516.2c0.8,0,1.9,0.4,1.9,1.2v0.2c-0.3-0.7-1.1-1.2-1.9-1.2c-0.8,0-1.5,0.5-1.9,1.2v-0.2
				C67.1,1516.5,68.2,1516.2,68.9,1516.2 M67,1519.3c0.3,0.7,1.1,1.3,1.9,1.3c0.9,0,1.6-0.5,1.9-1.3c0.2,0.8,0.8,1.3,1.7,1.3h1.1
				c0.7,0,1.2,0.5,1.2,1.2c0,0.6-0.5,1.2-1.2,1.2h-9.6c-0.7,0-1.2-0.5-1.2-1.2c0-0.6,0.5-1.2,1.2-1.2h1.1
				C66.2,1520.6,66.8,1520.1,67,1519.3 M83.3,1522c0.3,0,1.2,0.8,1.2,1.9v35.1c0,1.1-0.9,1.9-1.9,1.9H65.4c0.1-0.5,0.3-1.1,0.3-1.7
				h16.1h1v-1v-29.3v-1h-1H56.1h-1v1v16c-0.6-0.1-1.1-0.1-1.7-0.2v-20.9c0-1.2,1.1-1.9,2.7-1.9h3.4c0.1,2.4,2.2,4.4,4.6,4.4h9.6
				c2.5,0,4.5-1.9,4.6-4.4H83.3 M68.9,1515.2c-1.4,0-2.9,0.8-2.9,2.2v1.4c0,0.6-0.2,0.8-0.8,0.8h-1.1c-1.2,0-2.2,1-2.2,2.2v0
				c0,1.2,1,2.2,2.2,2.2h9.6c1.2,0,2.2-1,2.2-2.2v0c0-1.2-1-2.2-2.2-2.2h-1.1c-0.6,0-0.8-0.2-0.8-0.8v-1.4
				C71.8,1515.9,70.4,1515.2,68.9,1515.2L68.9,1515.2z M68.9,1519.6c-0.6,0-1.1-0.5-1.1-1.1c0-0.6,0.5-1.1,1.1-1.1
				c0.6,0,1.1,0.5,1.1,1.1C70.1,1519.1,69.6,1519.6,68.9,1519.6L68.9,1519.6z M83.3,1521h-6c0,0.2,0.1,0.5,0.1,0.8
				c0,2-1.6,3.6-3.7,3.6h-9.6c-2,0-3.7-1.6-3.7-3.7c0-0.2,0-0.5,0.1-0.7h-4.5c-2.4,0-3.7,1.3-3.7,2.9v22c0.2,0,0.5,0,0.7,0
				c1,0,2,0.1,2.9,0.4v-17.2h25.7v29.3h-17c-0.1,1.3-0.4,2.5-0.8,3.7h18.5c1.6,0,2.9-1.3,2.9-2.9v-35.1
				C85.5,1522.3,84.2,1521,83.3,1521L83.3,1521z M63.9,1531c-0.2,0-0.4,0.1-0.5,0.2l-2.3,2.5l-1.2-0.9c-0.1-0.1-0.3-0.1-0.4-0.1
				c-0.2,0-0.4,0.1-0.5,0.2c-0.2,0.3-0.2,0.7,0.1,0.9l1.7,1.3c0.1,0.1,0.3,0.1,0.4,0.1c0.2,0,0.4-0.1,0.5-0.2l2.7-3
				c0.2-0.3,0.2-0.7-0.1-0.9C64.3,1531.1,64.1,1531,63.9,1531L63.9,1531z M63.9,1537.4c-0.2,0-0.4,0.1-0.5,0.2l-2.3,2.5l-1.2-0.9
				c-0.1-0.1-0.3-0.1-0.4-0.1c-0.2,0-0.4,0.1-0.5,0.2c-0.2,0.3-0.2,0.7,0.1,0.9l1.7,1.3c0.1,0.1,0.3,0.1,0.4,0.1
				c0.2,0,0.4-0.1,0.5-0.2l2.7-3c0.2-0.3,0.2-0.7-0.1-0.9C64.3,1537.5,64.1,1537.4,63.9,1537.4L63.9,1537.4z M63.9,1543.6
				c-0.2,0-0.4,0.1-0.5,0.2l-2.3,2.5l-1.2-0.9c-0.1-0.1-0.3-0.1-0.4-0.1c-0.2,0-0.4,0.1-0.5,0.2c-0.2,0.3-0.2,0.7,0.1,0.9l1.7,1.3
				c0.1,0.1,0.3,0.1,0.4,0.1c0.2,0,0.4-0.1,0.5-0.2l2.7-3c0.2-0.3,0.2-0.7-0.1-0.9C64.3,1543.6,64.1,1543.6,63.9,1543.6L63.9,1543.6
				z M63.9,1549.7c-0.2,0-0.4,0.1-0.5,0.2l-2.3,2.5l-1.2-0.9c-0.1-0.1-0.3-0.1-0.4-0.1c-0.2,0-0.4,0.1-0.5,0.2
				c-0.2,0.3-0.2,0.7,0.1,0.9l1.7,1.3c0.1,0.1,0.3,0.1,0.4,0.1c0.2,0,0.4-0.1,0.5-0.2l2.7-3c0.2-0.3,0.2-0.7-0.1-0.9
				C64.3,1549.8,64.1,1549.7,63.9,1549.7L63.9,1549.7z"/>
		</g>
	</g>
	<g id="_x31__14_">
		<g>
			<path class="st0" d="M79,1533.2H68.2v0.7H79V1533.2L79,1533.2z M79,1539.7H68.2v0.7H79V1539.7L79,1539.7z M79,1546.1H68.2v0.7H79
				V1546.1L79,1546.1z M79,1551.9H68.2v0.7H79V1551.9L79,1551.9z"/>
		</g>
	</g>
	<g id="_x32__xA0_Изображение_5_">
	</g>
</g>
<g id="Иконка_4_">
	<g id="_x32__xA0_Изображение_3_">
	</g>
	<g id="Иконка_5_">
		<g id="_x31__13_">
			<g>
				<path class="st0" d="M78.8,1603c1.8,0,3.3,1.5,3.3,3.3c0,1.8-1.5,3.3-3.3,3.3c-1.8,0-3.3-1.5-3.3-3.3
					C75.4,1604.5,76.9,1603,78.8,1603 M68.3,1603c1.8,0,3.3,1.5,3.3,3.3c0,1.8-1.5,3.3-3.3,3.3c-1.8,0-3.3-1.5-3.3-3.3
					C65,1604.5,66.5,1603,68.3,1603 M57.9,1603c1.8,0,3.3,1.5,3.3,3.3c0,1.8-1.5,3.3-3.3,3.3c-1.8,0-3.3-1.5-3.3-3.3
					C54.5,1604.5,56,1603,57.9,1603 M89.9,1607.6c0.1,0,0.2,0,0.3,0.1c0.3,0.2,0.5,0.6,0.3,0.9c-0.1,0.2-2.7,5.6-6.5,6.8
					c-0.1,0-0.3,0.1-0.4,0.1l-0.1,0c-0.2,0-0.3,0.1-0.5,0.1l-0.9,0.1l0,0.9c0,1.2-0.1,3.3-0.1,4c0,1-0.1,1.5-0.2,1.6l-0.2,0.1l0,0.4
					l0,1.1h-0.1l0,1c0,0,0,0.1,0,0.1l0,16c0,0.5-0.4,1-1,1c-0.5,0-1-0.4-1-1l0-16l0,0l0-0.1l0-1h-1h-0.3h-1l0,1c0,0,0,0.1,0,0.1
					l0,16c0,0.5-0.4,1-1,1c-0.5,0-1-0.4-1-1l0-16l0,0l0-0.1l0-1h0v-0.8c0,0,0-0.1,0-0.1l0-0.2l-0.1-0.2c-0.2-0.5-0.3-1.1-0.3-1.6
					v-7.6l1.6-0.9c0.3-0.2,0.6-0.3,0.8-0.4l0.6,0.6l0.7,0.6l0.7-0.6l0.2-0.2c1.3,0.6,2.6,1.2,2.6,1.2c0.4,0.2,0.8,0.3,1.2,0.3
					c0.5,0,0.9-0.1,1.3-0.3l0,0l0,0c2-1.3,3.8-4.1,4.4-5.4C89.4,1607.8,89.6,1607.6,89.9,1607.6 M47.2,1608c0.3,0,0.5,0.1,0.6,0.4
					c0.6,1.2,2,3.6,3.8,5l0.7,0.5l0.2-0.2c0.2,0,0.4,0.1,0.6,0.1c0.4,0,0.8-0.1,1.2-0.3c0,0,1.3-0.6,2.6-1.2l0.2,0.2l0.6,0.6
					l0.7-0.5l0.7-0.5c0,0,0.1,0,0.1,0c0,0,0,0,0.1,0c0.9,0.6,1.6,1,2.2,1.3v7.5c0,0.6-0.1,1.1-0.3,1.6l-0.1,0.2l0,0.2
					c0,0,0,0.1,0,0.1v0.8h0l0,1c0,0,0,0.1,0,0.1v16c0,0.5-0.4,1-1,1c-0.3,0-0.5-0.1-0.7-0.3c-0.2-0.2-0.3-0.4-0.3-0.7l0-16l0,0
					l0-0.1l0-1h-1h-0.3h-1l0,1c0,0,0,0.1,0,0.1l0,16c0,0.5-0.4,1-1,1c-0.5,0-1-0.4-1-1l0-16l0,0l0-0.1l0-1h0l0-1.1l0.1-0.3l-0.3-0.3
					c-0.1-0.1-0.2-0.6-0.2-1.6c0-0.7,0-2.6-0.1-3.7l0-0.8l-0.8-0.1c-0.2,0-0.4-0.1-0.6-0.1c-3-0.9-5.5-4.7-6.5-6.8
					c-0.1-0.2-0.1-0.3,0-0.5c0.1-0.2,0.2-0.3,0.3-0.4C47,1608,47.1,1608,47.2,1608 M72.9,1609.6c0,0,0.1,0.1,0.1,0.1l0.5,0.3
					l0.4-0.3c0.3,0.4,0.6,0.7,1,1l0.1,0.4c0,0.1,0,0.1,0,0.2l-0.1,0.6l-0.6-0.2c-0.1,0-0.1,0-0.1-0.1c-0.4-0.3-1.3-0.8-2.1-1.2
					C72.5,1610.2,72.7,1609.9,72.9,1609.6 M62.5,1609.6c0,0,0.1,0.1,0.1,0.1l0.5,0.3l0.4-0.3c0.3,0.4,0.6,0.7,1,1l0.1,0.4
					c0,0.1,0,0.1,0,0.2l-0.1,0.6l-0.6-0.2c-0.1,0-0.1,0-0.1-0.1c-0.4-0.3-1.3-0.8-2.1-1.2C62,1610.2,62.3,1609.9,62.5,1609.6
					 M83.1,1609.9c0.3,0.1,0.5,0.2,0.6,0.3c0.1,0.1,0.2,0.2,0.3,0.3c0.1,0.1,0,0.3,0,0.4c-0.1,0.2-0.3,0.3-0.5,0.3
					c-0.1,0-0.2,0-0.2-0.1l-0.1,0c-0.1-0.1-0.5-0.2-0.9-0.4C82.6,1610.5,82.9,1610.2,83.1,1609.9 M53.4,1609.9
					c0.3,0.3,0.6,0.6,0.9,0.8c-0.5,0.2-0.9,0.4-0.9,0.4c-0.1,0-0.2,0.1-0.2,0.1c-0.2,0-0.4-0.1-0.5-0.3c-0.1-0.1-0.1-0.3,0-0.4
					c0.1-0.1,0.2-0.3,0.3-0.3C52.9,1610.2,53.1,1610.1,53.4,1609.9 M67,1611.9l0.6,0.6l0.7,0.6l0.7-0.6l0.5-0.4l0.2-0.1
					c1,0.6,1.6,0.9,2,1.1l0,3.1c0,0.1-0.1,3.4-0.1,4.4c0,1-0.1,1.5-0.2,1.6l-0.2,0.1l0,0.4l0,1.1h-0.1l0,1c0,0,0,0.1,0,0.1l0,16
					c0,0.5-0.4,1-1,1c-0.5,0-1-0.4-1-1l0-16l0,0l0-0.1l0-1h-1h-0.3h-1l0,1c0,0,0,0.1,0,0.1l0,16c0,0.5-0.4,1-1,1c-0.5,0-1-0.4-1-1
					l0-16l0,0l0-0.1l0-1h0v-0.8c0,0,0-0.1,0-0.1l0-0.2l-0.1-0.2c-0.2-0.5-0.3-1.1-0.3-1.6v-7.6l1.6-0.9
					C66.4,1612.2,66.7,1612,67,1611.9 M78.8,1602c-2.4,0-4.3,1.9-4.3,4.3c0,2.4,1.9,4.3,4.3,4.3c2.4,0,4.3-1.9,4.3-4.3
					C83.1,1603.9,81.2,1602,78.8,1602L78.8,1602z M68.3,1602c-2.4,0-4.3,1.9-4.3,4.3c0,2.4,1.9,4.3,4.3,4.3c2.4,0,4.3-1.9,4.3-4.3
					C72.6,1603.9,70.7,1602,68.3,1602L68.3,1602z M57.9,1602c-2.4,0-4.3,1.9-4.3,4.3c0,2.4,1.9,4.3,4.3,4.3c2.4,0,4.3-1.9,4.3-4.3
					C62.2,1603.9,60.3,1602,57.9,1602L57.9,1602z M89.9,1606.6c-0.6,0-1.2,0.3-1.5,0.9c-0.5,1.1-2.2,3.8-4.1,5
					c-0.3,0.1-0.6,0.2-0.9,0.2c-0.3,0-0.5-0.1-0.8-0.2c0,0-1.8-0.8-3.2-1.5l-0.7,0.6l-0.9-0.8c-0.2,0-0.4-0.1-0.5-0.1
					c-0.4,0.2-0.8,0.4-1.2,0.6c0-0.2,0-0.4,0-0.6c0.2-0.1,0.4-0.2,0.6-0.3c-1-0.5-1.8-1.3-2.3-2.3c-0.3,0.2-0.5,0.3-0.8,0.5
					c-0.4-0.2-0.7-0.4-1-0.6c-0.5,1-1.3,1.8-2.3,2.3c0.8,0.4,2.8,1.5,3.4,1.9c0.1,0.1,0.3,0.1,0.4,0.2v8.1c0,0.7,0.1,1.4,0.3,2
					c0,0.1,0,0.1,0,0.2v1.8h0c0,0,0,0.1,0,0.1l0,16.1c0,1.1,0.9,2,2,2c1.1,0,2-0.9,2-2l0-16.1c0,0,0-0.1,0-0.1h0.3c0,0,0,0.1,0,0.1
					l0,16.1c0,1.1,0.9,2,2,2h0c1.1,0,2-0.9,2-2l0-16.1c0,0,0-0.1,0-0.1h0l0-2.1c0,0,0.4-0.5,0.4-2.2c0-0.7,0.1-3.1,0.1-4
					c0.2,0,0.4-0.1,0.6-0.1l0,0c0,0,0,0,0,0c0.2,0,0.4-0.1,0.6-0.1c4.1-1.3,6.8-6.7,7.1-7.3c0.4-0.8,0.1-1.8-0.8-2.2
					C90.4,1606.7,90.1,1606.6,89.9,1606.6L89.9,1606.6z M47.2,1607c-0.2,0-0.5,0.1-0.7,0.2c-0.8,0.4-1.2,1.4-0.8,2.2
					c0.3,0.6,3,6,7.1,7.3c0.2,0.1,0.5,0.1,0.7,0.2c0,1,0.1,3,0.1,3.7c0,1.7,0.4,2.2,0.4,2.2l0,2.1h0c0,0,0,0.1,0,0.1l0,16.1
					c0,1.1,0.9,2,2,2s2-0.9,2-2l0-16.1c0,0,0-0.1,0-0.1h0.3c0,0,0,0.1,0,0.1l0,16.1c0,1.1,0.9,2,2,2c1.1,0,2-0.9,2-2v-16.1
					c0,0,0-0.1,0-0.1h0v-1.8c0-0.1,0-0.1,0-0.2c0.2-0.6,0.3-1.3,0.3-2v-8.3c0,0,0,0,0,0c-0.8,0-2.8-1.5-3.1-1.6
					c-0.2,0.1-0.5,0.2-0.7,0.2l-0.9,0.7l-0.7-0.6c-1.4,0.7-3.2,1.5-3.2,1.5c-0.3,0.1-0.5,0.2-0.8,0.2c-0.3,0-0.6-0.1-0.9-0.2l0,0
					c-1.7-1.3-3.1-3.7-3.6-4.7C48.4,1607.3,47.8,1607,47.2,1607L47.2,1607z M62.1,1608.2c-0.5,1-1.3,1.8-2.3,2.3
					c0.8,0.4,2.8,1.5,3.4,1.9c0.1,0.1,0.3,0.1,0.4,0.2v8.1c0,0.7,0.1,1.4,0.3,2c0,0.1,0,0.1,0,0.2v1.8h0c0,0,0,0.1,0,0.1l0,16.1
					c0,1.1,0.9,2,2,2s2-0.9,2-2l0-16.1c0,0,0-0.1,0-0.1h0.3c0,0,0,0.1,0,0.1l0,16.1c0,1.1,0.9,2,2,2h0c1.1,0,2-0.9,2-2l0-16.1
					c0,0,0-0.1,0-0.1h0l0-2.1c0,0,0.4-0.5,0.4-2.2c0-0.9,0.1-4.3,0.1-4.3l0-3.7c0,0-2.8-1.6-2.8-1.6l-0.8,0.2l-0.7,0.6l-0.9-0.8
					c-0.2,0-0.4-0.1-0.5-0.1c-0.4,0.2-0.8,0.4-1.2,0.6c0-0.2,0-0.4,0-0.6c0.2-0.1,0.4-0.2,0.6-0.3c-1-0.5-1.8-1.3-2.3-2.3
					c-0.3,0.2-0.5,0.3-0.8,0.5C62.8,1608.6,62.4,1608.4,62.1,1608.2L62.1,1608.2z M82.8,1608.6c-0.6,1-1.6,1.8-2.8,2.2
					c1.3,0.6,2.8,1.3,2.8,1.3c0.2,0.1,0.4,0.1,0.7,0.1c0.6,0,1.1-0.3,1.4-0.9c0.4-0.8,0-1.7-0.7-2.1
					C84.1,1609.3,83.5,1609,82.8,1608.6L82.8,1608.6z M53.7,1608.7c-0.7,0.3-1.2,0.6-1.3,0.6c-0.8,0.4-1.1,1.3-0.7,2.1
					c0.3,0.6,0.8,0.9,1.4,0.9c0.2,0,0.5,0,0.7-0.2c0,0,1.4-0.7,2.7-1.3C55.3,1610.5,54.3,1609.7,53.7,1608.7L53.7,1608.7z"/>
			</g>
		</g>
		<g id="_x32__xA0_Изображение_1_">
		</g>
	</g>
	<g id="Shape_8_1_">
		<g>
			<polygon class="st1" points="70.9,1312 55.9,1297 55.2,1297.7 54.5,1297 39.5,1312 40.9,1313.4 55.2,1299.1 69.5,1313.4 			"/>
		</g>
	</g>
	<g id="_x31__10_">
		<g>
			<path class="st0" d="M69.4,1426.3L69.4,1426.3c0.9,0,1.8,0.1,2.7,0.3c1.1,0.2,2.7,0.7,3.8,2c1.1,1.2,1.7,2.9,1.8,5
				c0,1.2,0,2.4,0,3.5l0,1.5c0,0.5,0.2,0.9,0.4,1.1c0,0,0,0.1,0.1,0.1c0.6,0.9,0.4,2.3-0.4,3.1c0,0-0.1,0.1-0.1,0.1
				c-0.2,0.2-0.6,0.5-0.7,1c-0.6,1.8-1.4,3.5-2.6,4.8l-0.2,0.3v0.4v1.9c0,3.7,3,6.8,6.8,6.8h2.7c0.7,0.3,4.9,1.9,7.8,7.9v2.7
				c0,1-0.8,1.9-1.9,1.9H49.3c-1,0-1.9-0.8-1.9-1.9v-2.7c2.9-5.9,7.1-7.6,7.8-7.9h2.7c3.7,0,6.8-3,6.8-6.8v-1.9v-0.4l-0.2-0.3
				c-1.1-1.3-1.9-2.8-2.4-4.3c0-0.1,0-0.1-0.1-0.2c-0.1-0.4-0.3-0.9-0.8-1.3c-0.9-0.7-1.1-2.1-0.6-3.1l0,0l0,0c0,0,0.1-0.1,0.1-0.1
				c0.2-0.2,0.4-0.6,0.4-1.2c0-0.6,0-1.2,0-1.8c0-1.1,0-2.2,0-3.3c0.1-1.6,0.5-3,1.2-4c0.8-1.2,2.3-2.2,3.9-2.6
				C67.3,1426.4,68.3,1426.3,69.4,1426.3 M69.4,1425.3c-1.2,0-2.3,0.1-3.4,0.4c-1.8,0.4-3.4,1.5-4.5,3c-0.9,1.3-1.3,3-1.4,4.6
				c0,1.7,0,3.4,0,5.2c0,0.3-0.3,0.6-0.4,0.9c-0.8,1.4-0.4,3.3,0.8,4.4c0.3,0.2,0.4,0.6,0.5,1c0.5,1.7,1.5,3.3,2.6,4.6v1.9
				c0,3.2-2.6,5.8-5.8,5.8H55c0,0-5.2,1.4-8.6,8.6v2.9c0,1.6,1.3,2.9,2.9,2.9h40.4c1.6,0,2.9-1.3,2.9-2.9v-2.9
				c-3.4-7.2-8.6-8.6-8.6-8.6H81c-3.2,0-5.8-2.6-5.8-5.8v-1.9c1.3-1.5,2.2-3.3,2.8-5.2c0.1-0.3,0.4-0.5,0.6-0.7
				c1.1-1.1,1.3-3,0.5-4.3c-0.1-0.2-0.3-0.4-0.3-0.6c0-1.7,0-3.4,0-5.1c0-2-0.6-4.2-2.1-5.7c-1.2-1.2-2.7-1.9-4.4-2.3
				C71.4,1425.4,70.4,1425.3,69.4,1425.3L69.4,1425.3z"/>
		</g>
	</g>
</g>
<g id="Background__x2B__Layout_xA0_Изображение_1_">
	<circle class="st1" cx="56.5" cy="1555" r="17"/>
	<circle class="st1" cx="56.5" cy="1634" r="17"/>
	<path class="st1" d="M76.2,1464.7c0-8.9-7.2-16.1-16.1-16.1c-4.4,0-8.6,1.8-11.6,5c-0.9,0.2-1.8,0.6-2.6,1.2
		c-0.3,0.3-1,0.7-1.5,1.2c-0.1,0.1-0.2,0.1-0.2,0.2l-0.1,0.1l-0.1,0.1l-1.6,1.5v0.4c-1.3,1.9-2,4.2-2,6.6c0,4.3,2,7.6,3.6,10
		c2,2.8,4.1,5,6.5,6.6c1.5,1,3.4,2.1,6.2,2.5c0.6,0.1,1.1,0.1,1.7,0.1c2.2,0,4.1-0.6,6-1.8l0,0l0.2-0.1c0.3-0.2,0.6-0.4,0.8-0.6h0.3
		l1.1-1.1l0.2-0.1l0.4-0.5c0.3-0.3,0.5-0.7,0.7-1C73,1475.8,76.2,1470.4,76.2,1464.7z"/>
	<g id="_x31__7_">
		<g>
			<path class="st0" d="M86.9,1346.1c0.9,0,1.6,0.7,1.6,1.6c0,0.7-0.4,1.3-1.1,1.5l-0.4,0.2l-0.2,0.4l-8.5,22.7
				c0,0.1-0.2,0.2-0.3,0.2H55c-0.1,0-0.2-0.1-0.3-0.2l-8.5-22.7l-0.2-0.5l-0.5-0.1c-0.7-0.2-1.2-0.8-1.2-1.5c0-0.9,0.7-1.6,1.6-1.6
				c0.9,0,1.6,0.7,1.6,1.6c0,0.4-0.2,0.8-0.4,1.1l-0.5,0.6l0.4,0.7l5.9,9.5l1.8,3l0-3.5l0.1-9l0-0.6l-0.5-0.3
				c-0.5-0.3-0.8-0.8-0.8-1.4c0-0.9,0.7-1.6,1.6-1.6c0.9,0,1.6,0.7,1.6,1.6c0,0.5-0.2,1-0.7,1.3l-0.6,0.5l0.3,0.7l4.2,10.5l0.9,2.3
				l0.9-2.3l4.2-10.5l0.3-0.7l-0.6-0.5c-0.4-0.3-0.7-0.8-0.7-1.3c0-0.9,0.7-1.6,1.6-1.6c0.9,0,1.6,0.7,1.6,1.6c0,0.5-0.2,1-0.7,1.3
				l-0.6,0.5l0.3,0.7l4.2,10.5l0.9,2.3l0.9-2.3l4.2-10.5l0.3-0.7L77,1349c-0.4-0.3-0.7-0.8-0.7-1.3c0-0.9,0.7-1.6,1.6-1.6
				c0.9,0,1.6,0.7,1.6,1.6c0,0.6-0.3,1.1-0.8,1.4l-0.5,0.3l0,0.6l0.1,9l0,3.5l1.8-3l5.8-9.4l0.4-0.7l-0.6-0.6
				c-0.3-0.3-0.5-0.7-0.5-1.1C85.3,1346.9,86,1346.1,86.9,1346.1 M78.6,1377.9c0.2,0,0.3,0.1,0.3,0.3v2.8c0,0.2-0.1,0.3-0.3,0.3
				H54.4c-0.2,0-0.3-0.1-0.3-0.3v-2.8c0-0.2,0.1-0.3,0.3-0.3H78.6 M86.9,1345.1c-1.4,0-2.6,1.2-2.6,2.6c0,0.7,0.3,1.4,0.8,1.8
				l-5.8,9.4l-0.1-9c0.8-0.5,1.3-1.3,1.3-2.2c0-1.4-1.2-2.6-2.6-2.6c-1.4,0-2.6,1.2-2.6,2.6c0,0.9,0.4,1.6,1.1,2.1l-4.2,10.5
				l-4.2-10.5c0.7-0.5,1.1-1.2,1.1-2.1c0-1.4-1.2-2.6-2.6-2.6c-1.4,0-2.6,1.2-2.6,2.6c0,0.9,0.4,1.6,1.1,2.1l-4.2,10.5l-4.2-10.5
				c0.7-0.5,1.1-1.2,1.1-2.1c0-1.4-1.2-2.6-2.6-2.6c-1.4,0-2.6,1.2-2.6,2.6c0,0.9,0.5,1.8,1.3,2.2l-0.1,9l-5.9-9.5
				c0.4-0.5,0.7-1.1,0.7-1.8c0-1.4-1.2-2.6-2.6-2.6s-2.6,1.2-2.6,2.6c0,1.2,0.8,2.2,1.9,2.5l8.5,22.7c0.2,0.5,0.7,0.8,1.2,0.8h23
				c0.5,0,1-0.3,1.2-0.8l8.5-22.7c1-0.3,1.8-1.3,1.8-2.4C89.5,1346.3,88.3,1345.1,86.9,1345.1L86.9,1345.1z M78.6,1376.9H54.4
				c-0.7,0-1.3,0.6-1.3,1.3v2.8c0,0.7,0.6,1.3,1.3,1.3h24.2c0.7,0,1.3-0.6,1.3-1.3v-2.8C79.9,1377.4,79.3,1376.9,78.6,1376.9
				L78.6,1376.9z"/>
		</g>
	</g>
	<g>
		<path class="st2" d="M246.2,58.8c1.5,0,2.7,1.2,2.7,2.7c0,1.5-1.2,2.7-2.7,2.7c-1.5,0-2.7-1.2-2.7-2.7
			C243.5,60.1,244.7,58.8,246.2,58.8L246.2,58.8z"/>
		<path class="st3" d="M161.2,55l-1.7,1.3c-0.9-1.2-2-2.1-3.4-2.7c-1.3-0.6-2.7-0.9-4.3-0.9c-1.7,0-3.3,0.4-4.7,1.2
			c-1.5,0.8-2.6,1.9-3.4,3.3c-0.8,1.4-1.2,2.9-1.2,4.7c0,2.6,0.9,4.8,2.7,6.5c1.8,1.7,4,2.6,6.8,2.6c3,0,5.5-1.2,7.5-3.5l1.7,1.3
			c-1.1,1.4-2.4,2.4-4,3.1c-1.6,0.7-3.4,1.1-5.3,1.1c-3.7,0-6.7-1.2-8.9-3.7c-1.8-2.1-2.7-4.6-2.7-7.6c0-3.1,1.1-5.8,3.3-7.9
			c2.2-2.1,5-3.2,8.3-3.2c2,0,3.8,0.4,5.4,1.2C158.8,52.5,160.2,53.6,161.2,55L161.2,55z"/>
		<path class="st3" d="M176.7,52.7c-1.6,0-3.1,0.4-4.5,1.2c-1.4,0.8-2.5,1.9-3.3,3.3c-0.8,1.4-1.2,2.9-1.2,4.7
			c0,2.5,0.9,4.7,2.6,6.4c1.8,1.7,3.9,2.6,6.4,2.6c1.7,0,3.2-0.4,4.6-1.2c1.4-0.8,2.5-1.9,3.3-3.3c0.8-1.4,1.2-2.9,1.2-4.6
			c0-1.7-0.4-3.2-1.2-4.6c-0.8-1.4-1.9-2.5-3.3-3.3C179.8,53.1,178.3,52.7,176.7,52.7L176.7,52.7z M176.6,50.6c3.2,0,6,1.1,8.1,3.2
			c2.2,2.2,3.3,4.8,3.3,8c0,3.1-1.1,5.8-3.3,7.9c-2.2,2.2-4.8,3.3-8,3.3c-3.2,0-5.9-1.1-8-3.2c-2.2-2.2-3.3-4.8-3.3-7.9
			c0-2.1,0.5-3.9,1.5-5.7c1-1.7,2.4-3.1,4.1-4.1C172.7,51.1,174.6,50.6,176.6,50.6L176.6,50.6z"/>
		<path class="st3" d="M218.4,61.8c0-2.6-0.9-4.8-2.7-6.5c-1.8-1.7-3.9-2.6-6.3-2.6c-2.4,0-4.5,0.9-6.2,2.6
			c-1.8,1.7-2.7,3.9-2.7,6.6c0,2.6,0.9,4.7,2.7,6.5c1.8,1.7,3.9,2.6,6.3,2.6c2.5,0,4.6-0.9,6.4-2.6
			C217.5,66.6,218.4,64.4,218.4,61.8L218.4,61.8z M194.5,60.6h3.7c0.5-3.4,1.9-6,4.1-7.6c2.2-1.6,4.5-2.5,6.9-2.5
			c3.2,0,5.9,1.1,8.1,3.2c2.2,2.2,3.3,4.8,3.3,8c0,3.1-1.1,5.8-3.2,7.9c-2.2,2.2-4.8,3.3-7.9,3.3c-2.9,0-5.4-0.9-7.5-2.8
			c-2.1-1.8-3.3-4.4-3.7-7.6h-3.7v10.3h-2.1V50.5h2.1V60.6L194.5,60.6z"/>
		<path class="st3" d="M224.6,53.2c1.6-1.7,3.6-2.6,6-2.6c1.9,0,3.4,0.5,4.7,1.5c1.2,1,1.8,2.3,1.8,3.9c0,2.3-1.1,3.9-3.5,4.9
			c3,0.9,4.5,2.8,4.5,5.7c0,1.9-0.7,3.5-2,4.7c-1.4,1.2-3.2,1.8-5.6,1.8c-1.6,0-3.1-0.3-4.3-1c-1.2-0.6-2.4-1.7-3.4-3.3l1.8-1
			c1.1,1.5,2.1,2.4,3,2.8c0.9,0.4,1.9,0.6,2.9,0.6c1.5,0,2.7-0.4,3.7-1.2c1-0.8,1.5-1.9,1.5-3.5c0-0.8-0.2-1.5-0.5-2.1
			c-0.4-0.6-0.8-1.1-1.5-1.4c-0.6-0.4-1.2-0.6-1.8-0.7c-0.6-0.1-1.5-0.1-2.8-0.1h-0.4v-1.9h0.8c3.4,0,5.1-1.3,5.1-3.8
			c0-1.2-0.4-2.1-1.2-2.8c-0.8-0.7-1.8-1.1-3-1.1c-1.5,0-3,0.6-4.4,1.9L224.6,53.2L224.6,53.2z"/>
		<polygon class="st3" points="253.6,73 256.8,50.5 257.2,50.5 266.6,69.1 275.9,50.5 276.2,50.5 279.5,73 277.3,73 275,57.7 
			266.8,73 266.2,73 258,57.6 255.8,73 253.6,73 		"/>
		<path class="st2" d="M49.9,43.3c2.9-3.8,7.5-6.2,12.7-6.2c0.7,0,1.5,0.1,2.2,0.1l0.8-5.6c-1-0.1-1.9-0.2-2.9-0.2
			c-7,0-13.2,3.3-17.1,8.4c-2.9,3.7-4.6,8.3-4.6,13.3c0,2.9,0.6,5.7,1.6,8.2c2.9,7,9.4,12.2,17.1,13.3c1,0.1,2,0.2,3,0.2
			c7,0,13.2-3.3,17.1-8.4c2.9-3.7,4.6-8.3,4.6-13.3c0-2.9-0.6-5.7-1.6-8.2l-5.2,2.1c0.8,1.9,1.2,3.9,1.2,6.1c0,3.7-1.3,7.1-3.4,9.9
			c-2.9,3.8-7.5,6.2-12.7,6.2c-0.7,0-1.5,0-2.2-0.1c-5.8-0.8-10.6-4.6-12.7-9.9c-0.8-1.9-1.2-3.9-1.2-6.1
			C46.6,49.5,47.8,46,49.9,43.3L49.9,43.3z"/>
		<path class="st2" d="M122.3,51.5L122.3,51.5c-0.1-0.5-0.1-1-0.2-1.5l0-0.2c-0.7-3-2.3-5.7-4.5-7.5c-2.1-1.8-4.8-2.9-7.7-2.9
			c-2.9,0-5.6,1.1-7.7,2.9c-2.2,1.9-3.8,4.5-4.5,7.5l0,0.2c-0.1,0.4-0.2,0.9-0.2,1.3c-0.1,0.5-0.1,0.9-0.1,1.4l0,0V72v1h-0.9h-1.6
			h-1.8h-0.9v-1V52.7h0c0-0.5-0.1-0.9-0.1-1.4c-0.1-0.4-0.1-0.9-0.2-1.3l0-0.2c-0.7-3-2.3-5.7-4.5-7.5c-2.1-1.8-4.8-2.9-7.7-2.9
			c-2.9,0-5.6,1.1-7.7,2.9c-2.2,1.9-3.8,4.5-4.5,7.5l-0.2,0.8h-0.7h-3.4h-1.1l0.2-1.2c0.8-4.5,3.1-8.5,6.2-11.3
			c3.1-2.8,6.9-4.4,11.2-4.4c3.4,0,6.5,1.1,9.2,2.9c2.3,1.6,4.3,3.8,5.7,6.4c1.5-2.6,3.4-4.8,5.8-6.4c2.7-1.9,5.9-3,9.3-3
			c4.2,0,8.1,1.7,11.2,4.4c2.9,2.7,5.1,6.4,6,10.6h0l0.1,0.8c0,0.1,0,0.2,0,0.2l0.2,0.9h0c0,0.3,0.1,0.5,0.1,0.8
			c0.1,0.6,0.1,1.3,0.1,1.9V72v1h-0.9h-3.3h-0.9v-1V53.2C122.4,52.7,122.4,52.1,122.3,51.5L122.3,51.5z"/>
	</g>
	<g>
		<path class="st2" d="M56.9,315.2l0.9-1.1l-1.2-1l-1,1.2c-0.9-0.6-1.8-1.1-2.8-1.4l0.2-1.6l-1.6-0.2l-0.2,1.5
			c-0.4-0.1-0.9-0.1-1.3-0.1c-0.4,0-0.8,0-1.2,0.1l-0.2-1.5l-1.6,0.2l0.2,1.6c-1,0.3-2,0.8-2.9,1.4l-0.9-1.1l-1.2,1l0.9,1.1
			c-0.8,0.7-1.6,1.6-2.2,2.6l-0.5,0.8l0.5,0.8c2.1,3.4,5.5,5.4,9,5.4c3.6,0,6.9-2,9-5.4l0.5-0.8l-0.5-0.8
			C58.4,316.7,57.7,315.9,56.9,315.2L56.9,315.2z M49.9,323.2c-3.1,0-5.9-1.8-7.7-4.6c1.7-2.8,4.5-4.6,7.7-4.6
			c3.2,0,5.9,1.8,7.7,4.6C55.9,321.4,53.1,323.2,49.9,323.2L49.9,323.2z"/>
		<path class="st2" d="M53.1,317.6c0.1,0.3,0.1,0.6,0.1,0.8c0,1.8-1.5,3.3-3.3,3.3c-1.8,0-3.3-1.5-3.3-3.3c0-1.8,1.5-3.3,3.3-3.3
			c0.2,0,0.4,0,0.6,0.1c0.2-0.2,0.4-0.4,0.7-0.5c-0.4-0.1-0.8-0.2-1.2-0.2c-2.2,0-3.9,1.7-3.9,3.9c0,2.2,1.7,3.9,3.9,3.9
			c2.2,0,3.9-1.7,3.9-3.9c0-0.6-0.1-1.1-0.3-1.6C53.4,317.2,53.3,317.4,53.1,317.6L53.1,317.6z"/>
		<path class="st2" d="M50.1,316.4c0-0.2,0-0.3,0.1-0.5c-0.1,0-0.1,0-0.2,0c-1.4,0-2.6,1.2-2.6,2.6c0,1.4,1.2,2.6,2.6,2.6
			c1.4,0,2.6-1.2,2.6-2.6c0-0.1,0-0.3,0-0.4c-0.2,0.1-0.4,0.1-0.6,0.1C50.9,318.2,50.1,317.4,50.1,316.4L50.1,316.4z"/>
	</g>
	<g>
		<g>
			<defs>
				<path id="SVGID_1_" d="M44.3,588.1V584h4.2v4.2H44.3L44.3,588.1z M44.9,594v-2.9h2.9v2.9H44.9L44.9,594z M40.5,594v-2.9h2.9v2.9
					H40.5L40.5,594z M50.6,590.6v-0.9h-4.2v0.9h-0.2v-0.9h-4.2v0.9h-0.2v-1.1h4.4v-0.9h0.2v0.9h4.4v1.1H50.6L50.6,590.6z M49.3,594
					v-2.9h2.9v2.9H49.3L49.3,594z"/>
			</defs>
			<use xlink:href="#SVGID_1_"  style="overflow:visible;fill:#2E5166;"/>
			<clipPath id="SVGID_2_">
				<use xlink:href="#SVGID_1_"  style="overflow:visible;"/>
			</clipPath>
		</g>
	</g>
	<g>
		<defs>
			<path id="SVGID_3_" d="M47.2,626.5c0-0.1-0.1-0.3-0.2-0.4c-0.6-1.5-2-2.1-3.2-2.1c-1.5,0-3.2,1-3.4,3.1v0.4c0,0,0,0.2,0,0.3
				c0.1,1,0.9,2.1,1.5,3c0.6,1.1,1.3,2.1,1.9,3.2c0.4-0.7,0.8-1.4,1.2-2c0.1-0.2,0.2-0.4,0.3-0.6c0.1-0.1,0.2-0.3,0.3-0.4
				c0.6-1.2,1.6-2.3,1.6-3.5V627C47.4,626.9,47.2,626.5,47.2,626.5L47.2,626.5z M43.9,628.6c-0.4,0-0.9-0.2-1.2-0.8
				c0-0.1,0-0.3,0-0.3v-0.3c0-0.8,0.7-1.1,1.2-1.1c0.7,0,1.3,0.6,1.3,1.3C45.2,628,44.6,628.6,43.9,628.6L43.9,628.6z"/>
		</defs>
		<use xlink:href="#SVGID_3_"  style="overflow:visible;fill:#2E5166;"/>
		<clipPath id="SVGID_4_">
			<use xlink:href="#SVGID_3_"  style="overflow:visible;"/>
		</clipPath>
	</g>
	<g>
		<defs>
			<path id="SVGID_5_" d="M50.8,671.9c0,0.2,0,0.3-0.1,0.4l-1.4,1.4c-0.1,0.1-0.1,0.1-0.3,0.2c-0.1,0-0.2,0.1-0.3,0.1c0,0,0,0-0.1,0
				c0,0-0.1,0-0.1,0c-0.1,0-0.4,0-0.7-0.1c-0.3,0-0.7-0.2-1.1-0.3c-0.4-0.2-0.9-0.4-1.5-0.8c-0.6-0.4-1.1-0.9-1.8-1.5
				c-0.5-0.5-0.9-1-1.2-1.4c-0.3-0.4-0.6-0.9-0.8-1.2c-0.2-0.4-0.3-0.7-0.4-1c-0.1-0.3-0.2-0.6-0.2-0.8c0-0.2,0-0.4,0-0.5
				c0-0.1,0-0.2,0-0.2c0-0.1,0-0.2,0.1-0.3c0.1-0.1,0.1-0.2,0.2-0.3l1.4-1.4c0.1-0.1,0.2-0.2,0.3-0.2c0.1,0,0.2,0,0.2,0.1
				c0.1,0.1,0.1,0.1,0.2,0.2l1.1,2.2c0.1,0.1,0.1,0.2,0.1,0.4c0,0.1-0.1,0.2-0.2,0.3l-0.5,0.5c0,0,0,0,0,0.1c0,0,0,0.1,0,0.1
				c0,0.1,0.1,0.3,0.2,0.5c0.1,0.2,0.2,0.4,0.4,0.6c0.2,0.2,0.4,0.5,0.7,0.8c0.3,0.3,0.6,0.6,0.8,0.8c0.2,0.2,0.5,0.3,0.6,0.4
				c0.2,0.1,0.3,0.1,0.4,0.2l0.1,0c0,0,0,0,0.1,0c0,0,0.1,0,0.1,0l0.6-0.6c0.1-0.1,0.3-0.2,0.4-0.2c0.1,0,0.2,0,0.3,0.1h0l2,1.2
				C50.7,671.6,50.8,671.7,50.8,671.9L50.8,671.9z"/>
		</defs>
		<use xlink:href="#SVGID_5_"  style="overflow:visible;fill:#2E5166;"/>
		<clipPath id="SVGID_6_">
			<use xlink:href="#SVGID_5_"  style="overflow:visible;"/>
		</clipPath>
	</g>
	<g>
		<g>
			<defs>
				<path id="SVGID_7_" d="M49.9,713h-8.8c-0.3,0-0.6-0.3-0.6-0.6v-5.2c0-0.2,0.1-0.2,0.2-0.1l4.6,4.7c0.1,0.1,0.3,0.1,0.4,0
					l4.6-4.7c0.1-0.1,0.2-0.1,0.2,0.1v5.2C50.5,712.7,50.2,713,49.9,713L49.9,713z M50.3,705.2l-4.6,4.7c-0.1,0.1-0.3,0.1-0.4,0
					l-4.6-4.7c-0.1-0.1-0.2-0.3-0.2-0.4s0-0.2,0-0.2c0-0.4,0.3-0.6,0.6-0.6h8.8c0.3,0,0.6,0.3,0.6,0.6v0.2
					C50.5,704.9,50.4,705.1,50.3,705.2L50.3,705.2z"/>
			</defs>
			<use xlink:href="#SVGID_7_"  style="overflow:visible;fill:#2E5166;"/>
			<clipPath id="SVGID_8_">
				<use xlink:href="#SVGID_7_"  style="overflow:visible;"/>
			</clipPath>
		</g>
	</g>
	<g>
		<defs>
			<polygon id="SVGID_9_" points="47.8,370 41.6,363.8 41.5,364 40.8,363.3 40.9,363.1 40.8,363 41.5,362.3 41.6,362.4 47.8,356.3 
				48.5,357 42.4,363.1 48.5,369.3 47.8,370 47.8,370 			"/>
		</defs>
		<use xlink:href="#SVGID_9_"  style="overflow:visible;fill:#333333;"/>
		<clipPath id="SVGID_10_">
			<use xlink:href="#SVGID_9_"  style="overflow:visible;"/>
		</clipPath>
	</g>
	<g>
		<defs>
			<polygon id="SVGID_11_" points="40.5,413 39.8,412.3 45.9,406.1 39.8,400 40.5,399.3 46.6,405.4 46.8,405.3 47.5,406 47.4,406.1 
				47.5,406.3 46.8,407 46.6,406.8 40.5,413 40.5,413 			"/>
		</defs>
		<use xlink:href="#SVGID_11_"  style="overflow:visible;fill:#333333;"/>
		<clipPath id="SVGID_12_">
			<use xlink:href="#SVGID_11_"  style="overflow:visible;"/>
		</clipPath>
	</g>
	<g>
		<defs>
			<path id="SVGID_13_" d="M47.5,279.4l-0.9-0.9c-3.5-3.1-5.7-5.1-5.7-7.7c0-2.1,1.6-3.7,3.7-3.7c1.1,0,2.3,0.5,3,1.4
				c0.7-0.9,1.9-1.4,3-1.4c2.1,0,3.7,1.6,3.7,3.7c0,2.5-2.3,4.6-5.7,7.7L47.5,279.4L47.5,279.4z"/>
		</defs>
		<use xlink:href="#SVGID_13_"  style="overflow:visible;fill:#00BFD6;"/>
		<clipPath id="SVGID_14_">
			<use xlink:href="#SVGID_13_"  style="overflow:visible;"/>
		</clipPath>
	</g>
	<g>
		<defs>
			<path id="SVGID_15_" d="M53.6,459.1c-0.1,0.5-0.1,0.6-0.2,0.6c-2.7,1.2-9.5,1.2-12.3,0c0,0-0.1-0.2-0.2-0.6c0,0-0.8-4.2,1.9-5.2
				c1.8-0.6,2.6-1.4,2.6-1.4l0.1,0.1c0.6,0.5,1.2,0.8,1.7,0.8h0.1c0.6,0,1.2-0.3,1.7-0.8l0.1-0.1c0,0,0.8,0.7,2.6,1.4
				C54.5,454.9,53.6,459,53.6,459.1L53.6,459.1z M50.2,449.5c-0.1,0.4-0.2,0.5-0.3,0.6c-0.3,1.5-1.4,2.8-2.5,2.8
				c-1.2,0-2.3-1.3-2.6-2.8c0-0.1-0.2-0.2-0.3-0.6c-0.1-0.4-0.1-0.7,0-0.9l0,0c0.2-0.1,0.1-0.1,0.1-0.1s-0.3-1.3-0.1-2
				c0.4-1.1,1.6-1.6,1.8-1.7c0.4-0.2,0.7-0.1,0.7-0.1c0,0,0.3,0,0.3,0.1c0.4,0.1,2.4,0.8,2.7,1.8c0.2,0.6-0.1,2-0.1,2
				c0,0,0,0,0.1,0.1l0,0C50.3,448.7,50.3,449.1,50.2,449.5L50.2,449.5z"/>
		</defs>
		<use xlink:href="#SVGID_15_"  style="overflow:visible;fill:#2E5166;"/>
		<clipPath id="SVGID_16_">
			<use xlink:href="#SVGID_15_"  style="overflow:visible;"/>
		</clipPath>
	</g>
	<g>
		<g>
			<defs>
				<path id="SVGID_17_" d="M52.3,495c-0.1-0.2-0.2-0.4-0.3-0.6c-1-2.5-3.3-3.3-5.1-3.3c-2.4,0-5.1,1.6-5.4,5v0.7c0,0,0,0.3,0,0.4
					c0.2,1.6,1.5,3.3,2.4,4.9c1,1.7,2.1,3.4,3.1,5.1c0.6-1.1,1.3-2.2,1.9-3.3c0.2-0.3,0.4-0.6,0.5-0.9c0.1-0.2,0.3-0.4,0.4-0.6
					c1-1.9,2.6-3.7,2.6-5.5v-0.8C52.5,495.7,52.3,495,52.3,495L52.3,495z M47,498.4c-0.7,0-1.5-0.4-1.9-1.3
					c-0.1-0.2-0.1-0.5-0.1-0.5v-0.4c0-1.3,1.1-1.8,2-1.8c1.1,0,2,0.9,2,2C49.1,497.5,48.1,498.4,47,498.4L47,498.4z"/>
			</defs>
			<use xlink:href="#SVGID_17_"  style="overflow:visible;fill:#2E5166;"/>
			<clipPath id="SVGID_18_">
				<use xlink:href="#SVGID_17_"  style="overflow:visible;"/>
			</clipPath>
		</g>
	</g>
	<g>
		<g>
			<defs>
				<path id="SVGID_19_" d="M56.8,549.6c0,0.3,0,0.5-0.2,0.7l-2.3,2.2c-0.1,0.1-0.2,0.2-0.4,0.3c-0.2,0.1-0.3,0.1-0.5,0.1
					c0,0,0,0-0.1,0c-0.1,0-0.1,0-0.2,0c-0.2,0-0.6,0-1-0.1c-0.5-0.1-1.1-0.3-1.8-0.5c-0.7-0.3-1.5-0.7-2.4-1.3
					c-0.9-0.6-1.8-1.4-2.8-2.4c-0.8-0.8-1.4-1.5-2-2.2c-0.5-0.7-0.9-1.4-1.3-2c-0.3-0.6-0.6-1.2-0.7-1.6c-0.2-0.5-0.3-0.9-0.3-1.3
					c-0.1-0.4-0.1-0.6-0.1-0.8c0-0.2,0-0.3,0-0.3c0-0.2,0.1-0.3,0.2-0.5c0.1-0.2,0.2-0.3,0.3-0.4l2.3-2.3c0.2-0.2,0.3-0.2,0.5-0.2
					c0.1,0,0.3,0,0.4,0.1c0.1,0.1,0.2,0.2,0.3,0.3l1.8,3.4c0.1,0.2,0.1,0.4,0.1,0.6c0,0.2-0.1,0.4-0.3,0.5l-0.8,0.8
					c0,0,0,0.1-0.1,0.1c0,0,0,0.1,0,0.1c0,0.2,0.1,0.5,0.3,0.8c0.1,0.3,0.3,0.6,0.6,1c0.3,0.4,0.7,0.8,1.2,1.3
					c0.5,0.5,1,0.9,1.4,1.2c0.4,0.3,0.7,0.5,1,0.6c0.3,0.1,0.5,0.2,0.6,0.2l0.2,0c0,0,0.1,0,0.1,0c0,0,0.1,0,0.1-0.1l1-1
					c0.2-0.2,0.4-0.3,0.7-0.3c0.2,0,0.3,0,0.5,0.1h0l3.3,1.9C56.6,549.2,56.8,549.4,56.8,549.6L56.8,549.6z"/>
			</defs>
			<use xlink:href="#SVGID_19_"  style="overflow:visible;fill:#2E5166;"/>
			<clipPath id="SVGID_20_">
				<use xlink:href="#SVGID_19_"  style="overflow:visible;"/>
			</clipPath>
		</g>
	</g>
	<g>
		<defs>
			<path id="SVGID_21_" d="M65.8,179.5l-6.5-6.4c1.7-1.8,2.7-4.3,2.7-6.9c0-5.7-4.7-10.3-10.5-10.3c-5.8,0-10.5,4.6-10.5,10.3
				s4.7,10.4,10.5,10.4c2.5,0,4.8-0.9,6.6-2.3l6.5,6.4c0.3,0.3,0.8,0.3,1.1,0C66.1,180.3,66.1,179.8,65.8,179.5L65.8,179.5z
				 M51.5,175c-4.9,0-8.9-3.9-8.9-8.8c0-4.8,4-8.8,8.9-8.8c4.9,0,8.9,3.9,8.9,8.8C60.4,171.1,56.4,175,51.5,175L51.5,175z"/>
		</defs>
		<use xlink:href="#SVGID_21_"  style="overflow:visible;fill:#5C7686;"/>
		<clipPath id="SVGID_22_">
			<use xlink:href="#SVGID_21_"  style="overflow:visible;"/>
		</clipPath>
	</g>
	<g>
		<defs>
			<path id="SVGID_23_" d="M50.5,125.4l-1.4-1.4c-5.2-4.6-8.6-7.7-8.6-11.5c0-3.1,2.4-5.5,5.5-5.5c1.7,0,3.4,0.8,4.5,2.1
				c1.1-1.3,2.8-2.1,4.5-2.1c3.1,0,5.5,2.4,5.5,5.5c0,3.8-3.4,6.9-8.6,11.5L50.5,125.4L50.5,125.4z"/>
		</defs>
		<use xlink:href="#SVGID_23_"  style="overflow:visible;fill:#FFFFFF;"/>
		<clipPath id="SVGID_24_">
			<use xlink:href="#SVGID_23_"  style="overflow:visible;"/>
		</clipPath>
	</g>
	<g>
		<defs>
			<path id="SVGID_25_" d="M51.2,1217.1c-0.4,0.3-0.9,0.4-1.4,0.6c-0.4-0.4-1-0.7-1.7-0.7c-1.3,0-2.3,1-2.3,2.3c0,0.2,0,0.4,0.1,0.5
				c-1.9-0.1-3.6-1-4.7-2.4c-0.2,0.3-0.3,0.7-0.3,1.1c0,0.8,0.4,1.5,1,1.9c-0.4,0-0.7-0.1-1-0.3v0c0,1.1,0.8,2,1.8,2.2
				c-0.2,0.1-0.4,0.1-0.6,0.1c-0.1,0-0.3,0-0.4,0c0.3,0.9,1.1,1.6,2.1,1.6c-0.8,0.6-1.8,1-2.8,1c-0.2,0-0.4,0-0.5,0
				c1,0.6,2.2,1,3.5,1c4.2,0,6.5-3.5,6.5-6.5l0-0.3c0.4-0.3,0.8-0.7,1.1-1.2c-0.4,0.2-0.8,0.3-1.3,0.4
				C50.7,1218.1,51,1217.7,51.2,1217.1L51.2,1217.1z"/>
		</defs>
		<use xlink:href="#SVGID_25_"  style="overflow:visible;fill:#FFFFFF;"/>
		<clipPath id="SVGID_26_">
			<use xlink:href="#SVGID_25_"  style="overflow:visible;"/>
		</clipPath>
	</g>
	<g>
		<defs>
			<path id="SVGID_27_" d="M42.2,1256h7.4c0.7,0,1.3,0.6,1.3,1.3v7.4c0,0.7-0.6,1.3-1.3,1.3h-7.4c-0.7,0-1.3-0.6-1.3-1.3v-7.4
				C41,1256.6,41.5,1256,42.2,1256L42.2,1256L42.2,1256z M48.2,1257.1L48.2,1257.1c-0.2,0-0.5,0.2-0.5,0.4v1.1
				c0,0.2,0.2,0.4,0.5,0.4h1.1c0.2,0,0.4-0.2,0.4-0.4v-1.1c0-0.2-0.2-0.4-0.4-0.4H48.2L48.2,1257.1L48.2,1257.1z M49.8,1260.2
				L49.8,1260.2H49c0.1,0.3,0.1,0.6,0.1,0.9c0,1.7-1.4,3-3.1,3c-1.7,0-3.1-1.3-3.1-3c0-0.3,0-0.6,0.1-0.9h-0.9v4.2
				c0,0.2,0.2,0.4,0.4,0.4h7c0.2,0,0.4-0.2,0.4-0.4V1260.2L49.8,1260.2L49.8,1260.2z M46,1259L46,1259c-1.1,0-2,0.9-2,1.9
				c0,1.1,0.9,1.9,2,1.9c1.1,0,2-0.9,2-1.9C48,1259.9,47.1,1259,46,1259L46,1259L46,1259z"/>
		</defs>
		<use xlink:href="#SVGID_27_"  style="overflow:visible;fill-rule:evenodd;clip-rule:evenodd;fill:#FFFFFF;"/>
		<clipPath id="SVGID_28_">
			<use xlink:href="#SVGID_27_"  style="overflow:visible;"/>
		</clipPath>
	</g>
	<g>
		<defs>
			<path id="SVGID_29_" d="M46,1177c-0.5-0.1-1.5,0-2,0c-1.5,0-2,0.7-2,2v1h-1v2h1v5h2v-5l1.3,0l0.7-2h-2l0,0c0-0.4,0.4-1,1-1
				c0.2,0,0.7,0,1,0V1177L46,1177z"/>
		</defs>
		<use xlink:href="#SVGID_29_"  style="overflow:visible;fill:#FFFFFF;"/>
		<clipPath id="SVGID_30_">
			<use xlink:href="#SVGID_29_"  style="overflow:visible;"/>
		</clipPath>
	</g>
	<g>
		<defs>
			<path id="SVGID_31_" d="M47.1,1143.1c-0.3-0.3-0.7-0.5-1.2-0.6v0c0.3-0.1,0.6-0.4,0.8-0.7c0.2-0.3,0.3-0.6,0.3-1
				c0-0.3-0.1-0.6-0.2-0.9c-0.1-0.3-0.4-0.5-0.6-0.6c-0.3-0.1-0.5-0.2-0.9-0.3c-0.3,0-0.7-0.1-1.3-0.1h-2.8v8h3.2c0.6,0,1,0,1.4-0.1
				c0.4-0.1,0.7-0.3,1-0.5c0.3-0.2,0.5-0.4,0.6-0.7c0.1-0.3,0.2-0.6,0.2-1C47.6,1143.9,47.4,1143.4,47.1,1143.1L47.1,1143.1z
				 M44.9,1141.6c-0.1,0.1-0.2,0.2-0.3,0.3c-0.1,0.1-0.3,0.1-0.4,0.1c-0.1,0-0.4,0-0.7,0h-0.3v-1.7h0.1c0.4,0,0.6,0,0.8,0
				c0.2,0,0.3,0,0.5,0.1c0.1,0.1,0.2,0.2,0.3,0.3c0.1,0.1,0.1,0.3,0.1,0.4C45,1141.3,45,1141.5,44.9,1141.6L44.9,1141.6z
				 M45.4,1144.9c-0.1,0.2-0.2,0.3-0.4,0.3c-0.2,0.1-0.4,0.1-0.6,0.1c-0.2,0-0.6,0-1.1,0h-0.1v-2h0.4c0.4,0,0.6,0,0.9,0
				c0.2,0,0.4,0,0.5,0.1c0.2,0.1,0.4,0.2,0.4,0.3c0.1,0.1,0.1,0.3,0.1,0.6C45.5,1144.6,45.5,1144.7,45.4,1144.9L45.4,1144.9z"/>
		</defs>
		<use xlink:href="#SVGID_31_"  style="overflow:visible;fill:#FFFFFF;"/>
		<clipPath id="SVGID_32_">
			<use xlink:href="#SVGID_31_"  style="overflow:visible;"/>
		</clipPath>
	</g>
	<g>
		<g>
			<path class="st4" d="M62.7,1472.9c-0.6-0.6-2-1.7-3-1.6c-0.3,0-0.6,0.1-0.9,0.3c0,0,0,0,0,0c-0.1,0-0.1,0.1-0.2,0.1
				c-0.2,0.1-0.5,0.3-0.8,0.6c0,0,0,0,0,0c-0.1,0.1-0.1,0.1-0.2,0.2c0,0,0,0,0,0c0,0,0,0,0,0c-0.4,0.4-0.8,0.8-1.3,0.9
				c-1,0.1-1.9-0.7-2.4-1.1c-1.1-1-2.1-2.2-2.9-3.6c-0.4-0.6-0.8-1.5-0.6-2.4c0.1-0.4,0.6-0.7,1-1c0.3-0.2,0.7-0.5,0.9-0.7
				c0.4-0.3,0.9-0.8,1-1.4c0.1-0.9-0.5-2.1-1-3c-0.4-0.7-1.2-2-2.1-2.1c-0.4-0.1-0.8,0.1-1.1,0.4c-0.2,0.2-0.8,0.6-1.3,1
				c0,0,0,0,0,0c-0.1,0.1-0.2,0.1-0.2,0.2v0c-1.1,1.1-2,2.6-2,4.8c0,2.9,1.4,5.3,2.7,7.1c1.4,1.9,3.1,3.9,5.2,5.3
				c1.2,0.8,2.3,1.4,4,1.7c1.9,0.3,3.2-0.2,4.4-1c0,0,0,0,0,0c0.7-0.4,1.2-0.9,1.5-1.2c0.1-0.1,0.2-0.2,0.3-0.2c0,0,0,0,0,0
				c0.2-0.2,0.3-0.4,0.4-0.7C64.4,1474.5,63.4,1473.4,62.7,1472.9z"/>
		</g>
		<g>
			<path class="st4" d="M60.4,1453.3c-3.5,0-6.7,1.7-8.7,4.3c0.5,0.3,0.8,0.8,1.1,1.3c1.7-2.3,4.5-3.8,7.6-3.8
				c5.2,0,9.4,4.2,9.4,9.4c0,3.8-2.3,7.1-5.5,8.6c0.4,0.4,0.7,0.9,0.9,1.4c3.7-1.8,6.3-5.6,6.3-10
				C71.5,1458.2,66.5,1453.3,60.4,1453.3z"/>
		</g>
	</g>
	<path class="st1" d="M54.2,1358.3l-2.8,2.7c-2.1,2-4.5,2.9-7.9,2.9h-4v4c0,0.7,0,1.4,0,2.1c-0.1,7-0.4,18.8,13.4,23.5l1.3,0.5
		l1.3-0.5c13.7-4.8,13.5-16.5,13.4-23.5c0-0.7,0-1.4,0-2.1v-4h-4c-3.4,0-5.8-0.9-7.9-2.9L54.2,1358.3L54.2,1358.3z"/>
	<path class="st5" d="M64.9,1368.4c-4.4,0-7.8-1.3-10.7-4c-2.9,2.8-6.3,4-10.7,4c0,7.3-1.5,17.6,10.7,21.9
		C66.4,1386,64.9,1375.6,64.9,1368.4z M54.2,1387.6c-8.4-3.3-8.3-10.2-8.2-16.8c3.2-0.3,5.8-1.4,8.2-3.1c2.4,1.8,5,2.8,8.2,3.1
		C62.6,1377.4,62.6,1384.3,54.2,1387.6z"/>
	<g>
		<polygon class="st5" points="53.3,1379.1 51.4,1377.1 49.8,1378.7 53.3,1382.3 58.7,1376.9 57.1,1375.3 		"/>
	</g>
	<g>
		<path class="st4" d="M58.5,1463.8c-0.1,0.2-0.3,0.4-0.5,0.6c-0.2,0.2-0.5,0.4-0.8,0.7c-0.4,0.3-0.7,0.6-0.9,0.8
			c-0.2,0.2-0.4,0.5-0.6,0.7c-0.3,0.4-0.4,0.9-0.4,1.5h5v-1.2h-3.2c0.1-0.1,0.2-0.2,0.4-0.4c0.2-0.2,0.4-0.3,0.6-0.5
			c0.4-0.3,0.8-0.7,1-0.9c0.3-0.3,0.5-0.5,0.6-0.7c0.1-0.2,0.3-0.4,0.3-0.7c0.1-0.2,0.1-0.5,0.1-0.8c0-0.3-0.1-0.6-0.2-0.8
			c-0.1-0.3-0.3-0.5-0.5-0.7c-0.2-0.2-0.4-0.3-0.7-0.5c-0.3-0.1-0.6-0.2-1-0.2c-0.3,0-0.7,0.1-1,0.2c-0.3,0.1-0.5,0.3-0.8,0.5
			c-0.2,0.2-0.4,0.5-0.5,0.8c-0.1,0.3-0.2,0.6-0.2,1h1.4c0-0.2,0.1-0.4,0.1-0.6c0.1-0.2,0.1-0.3,0.2-0.4c0.1-0.1,0.2-0.2,0.3-0.2
			c0.1-0.1,0.3-0.1,0.4-0.1c0.3,0,0.6,0.1,0.8,0.3c0.2,0.2,0.3,0.4,0.3,0.7c0,0.2,0,0.4-0.1,0.6
			C58.7,1463.4,58.6,1463.6,58.5,1463.8z"/>
	</g>
	<g>
		<path class="st4" d="M64.1,1460.6l-3.2,4.7v1.1h2.9v1.6h1.3v-1.6h0.9v-1.2h-0.9v-4.5H64.1z M63.8,1465.1h-1.5l1.5-2.2V1465.1z"/>
	</g>
	<g>
		<polygon class="st4" points="51.8,1552.7 50.1,1554.4 55.5,1559.7 67.4,1547.8 65.7,1546.2 55.5,1556.4 		"/>
		<path class="st4" d="M66.8,1555c0,5.2-4.9,10.2-10.2,10.2c-5.2,0-10.2-4.9-10.2-10.2c0-5.2,4.9-10.2,10.2-10.2
			c1,0,2.4,0.1,3.3,0.4l1.2-1.2c-1.4-0.5-3-0.8-4.5-0.8c-6.5,0-11.9,5.3-11.9,11.9s5.3,11.9,11.9,11.9c6.5,0,11.9-5.3,11.9-11.9
			H66.8z"/>
	</g>
	<g id="Cart_1_x2C__Shopping_Cart_1_1_">
		<g>
			<path class="st6" d="M60.1,223.5c0.9,0,1.7-0.7,1.9-1.5l2.5-9.4c0.2-0.8-0.4-1.5-1.2-1.5H41.1c-0.9,0-1.6,0.7-1.6,1.6
				s0.7,1.6,1.6,1.6h1.5v14.1c0,0.9,0.7,1.6,1.6,1.6h17.1c0.9,0,1.6-0.7,1.6-1.6s-0.7-1.6-1.6-1.6H45.8v-3.1H60.1z"/>
			<circle class="st6" cx="46.5" cy="233.6" r="2.3"/>
			<circle class="st6" cx="59" cy="233.6" r="2.3"/>
		</g>
	</g>
	<path class="st5" d="M65,1642.5c4.6-4.6,4.6-12.2,0-16.8c-4.6-4.6-12.2-4.6-16.8,0c-4.6,4.6-4.6,12.2,0,16.8
		C52.8,1647.1,60.4,1647.1,65,1642.5L65,1642.5z M49.5,1627c3.9-3.9,10.3-3.9,14.2,0c3.9,3.9,3.9,10.3,0,14.2
		c-3.9,3.9-10.3,3.9-14.2,0C45.6,1637.3,45.6,1630.9,49.5,1627L49.5,1627z M57.9,1631.5c0-1.1,0.9-2,2-2s2,0.9,2,2
		c0,0.3-0.3,0.6-0.6,0.6c-0.3,0-0.6-0.3-0.6-0.6c0-0.5-0.4-0.8-0.8-0.8c-0.5,0-0.8,0.4-0.8,0.8c0,0.3-0.3,0.6-0.6,0.6
		S57.9,1631.8,57.9,1631.5L57.9,1631.5z M51.7,1631.5c0-1.1,0.9-2,2-2c1.1,0,1.9,0.9,1.9,2c0,0.3-0.3,0.6-0.6,0.6
		c-0.3,0-0.6-0.3-0.6-0.6c0-0.5-0.4-0.8-0.8-0.8c-0.5,0-0.8,0.4-0.8,0.8c0,0.3-0.3,0.6-0.6,0.6C52,1632.1,51.7,1631.8,51.7,1631.5
		L51.7,1631.5z M51.5,1636.5c-0.1-0.3,0-0.7,0.4-0.9c0.1,0,0.2,0,0.3,0c0.3,0,0.5,0.2,0.6,0.4c0.6,1.5,2.2,2.5,3.9,2.5
		c1.7,0,3.3-1,3.9-2.5c0.1-0.3,0.5-0.5,0.9-0.3c0.3,0.1,0.5,0.5,0.4,0.9c-0.9,2-2.9,3.3-5.1,3.3
		C54.3,1639.8,52.3,1638.5,51.5,1636.5L51.5,1636.5z"/>
</g>
<g id="Группа_2_1_">
	<g id="Rectangle_2_copy_3_копия_3_2_">
		<g>
			<polygon class="st7" points="39.5,836 43.5,840 47.5,836 			"/>
		</g>
	</g>
	<g id="big_grid_копия_2_">
		<g>
			<path class="st8" d="M39.5,880h6v-6h-6V880z M47.5,874v6h6v-6H47.5z M39.5,888h6v-6h-6V888z M47.5,888h6v-6h-6V888z"/>
		</g>
	</g>
	<g id="big_grid_копия_2_2_">
		<g>
			<path class="st0" d="M39.5,924h6v-6h-6V924z M47.5,918v6h6v-6H47.5z M39.5,932h6v-6h-6V932z M47.5,932h6v-6h-6V932z"/>
		</g>
	</g>
	<g id="grid_копия_2_">
		<g>
			<path class="st8" d="M39.5,966h4v-4h-4V966z M44.5,966h4v-4h-4V966z M49.5,962v4h4v-4H49.5z M39.5,971h4v-4h-4V971z M44.5,971h4
				v-4h-4V971z M49.5,971h4v-4h-4V971z M39.5,976h4v-4h-4V976z M44.5,976h4v-4h-4V976z M49.5,976h4v-4h-4V976z"/>
		</g>
	</g>
	<g id="grid_копия_2_2_">
		<g>
			<path class="st0" d="M39.5,1010h4v-4h-4V1010z M44.5,1010h4v-4h-4V1010z M49.5,1006v4h4v-4H49.5z M39.5,1015h4v-4h-4V1015z
				 M44.5,1015h4v-4h-4V1015z M49.5,1015h4v-4h-4V1015z M39.5,1020h4v-4h-4V1020z M44.5,1020h4v-4h-4V1020z M49.5,1020h4v-4h-4V1020
				z"/>
		</g>
	</g>
	<g id="Прямоугольник_3_копия_8_2_">
		<g>
			<path class="st8" d="M39.5,1052h2v-2h-2V1052z M42.5,1052h2v-2h-2V1052z M45.5,1052h2v-2h-2V1052z M48.5,1052h2v-2h-2V1052z
				 M51.5,1050v2h2v-2H51.5z M39.5,1055h2v-2h-2V1055z M42.5,1055h2v-2h-2V1055z M45.5,1055h2v-2h-2V1055z M48.5,1055h2v-2h-2V1055z
				 M51.5,1055h2v-2h-2V1055z M39.5,1058h2v-2h-2V1058z M42.5,1058h2v-2h-2V1058z M45.5,1058h2v-2h-2V1058z M48.5,1058h2v-2h-2V1058
				z M51.5,1058h2v-2h-2V1058z M39.5,1061h2v-2h-2V1061z M42.5,1061h2v-2h-2V1061z M45.5,1061h2v-2h-2V1061z M48.5,1061h2v-2h-2
				V1061z M51.5,1061h2v-2h-2V1061z M39.5,1064h2v-2h-2V1064z M42.5,1064h2v-2h-2V1064z M45.5,1064h2v-2h-2V1064z M48.5,1064h2v-2
				h-2V1064z M51.5,1064h2v-2h-2V1064z"/>
		</g>
	</g>
	<g id="Прямоугольник_3_копия_9_2_">
		<g>
			<path class="st0" d="M39.5,1094h2v-2h-2V1094z M42.5,1094h2v-2h-2V1094z M45.5,1094h2v-2h-2V1094z M48.5,1094h2v-2h-2V1094z
				 M51.5,1092v2h2v-2H51.5z M39.5,1097h2v-2h-2V1097z M42.5,1097h2v-2h-2V1097z M45.5,1097h2v-2h-2V1097z M48.5,1097h2v-2h-2V1097z
				 M51.5,1097h2v-2h-2V1097z M39.5,1100h2v-2h-2V1100z M42.5,1100h2v-2h-2V1100z M45.5,1100h2v-2h-2V1100z M48.5,1100h2v-2h-2V1100
				z M51.5,1100h2v-2h-2V1100z M39.5,1103h2v-2h-2V1103z M42.5,1103h2v-2h-2V1103z M45.5,1103h2v-2h-2V1103z M48.5,1103h2v-2h-2
				V1103z M51.5,1103h2v-2h-2V1103z M39.5,1106h2v-2h-2V1106z M42.5,1106h2v-2h-2V1106z M45.5,1106h2v-2h-2V1106z M48.5,1106h2v-2
				h-2V1106z M51.5,1106h2v-2h-2V1106z"/>
		</g>
	</g>
	<g id="Tick_6_">
		<g>
			<path class="st7" d="M52.5,790h-10c-1.7,0-3,1.3-3,3v10c0,1.7,1.3,3,3,3h10c1.7,0,3-1.3,3-3v-10C55.5,791.3,54.2,790,52.5,790z
				 M53.5,803c0,0.6-0.4,1-1,1h-10c-0.6,0-1-0.4-1-1v-10c0-0.6,0.4-1,1-1h10c0.6,0,1,0.4,1,1V803z"/>
		</g>
	</g>
	<g id="Tick_4_">
		<g>
			<path class="st9" d="M51.4,795.1c-0.4-0.4-1-0.4-1.4,0l-3.5,3.5l-1.4-1.4c-0.4-0.4-1-0.4-1.4,0s-0.4,1,0,1.4l2.1,2.1
				c0.4,0.4,1,0.4,1.4,0l4.2-4.2C51.8,796.2,51.8,795.5,51.4,795.1z"/>
		</g>
	</g>
	<g id="Cross_копия_2_">
		<g>
			<path class="st7" d="M52.5,745h-10c-1.7,0-3,1.3-3,3v10c0,1.7,1.3,3,3,3h10c1.7,0,3-1.3,3-3v-10C55.5,746.3,54.2,745,52.5,745z
				 M53.5,758c0,0.6-0.4,1-1,1h-10c-0.6,0-1-0.4-1-1v-10c0-0.6,0.4-1,1-1h10c0.6,0,1,0.4,1,1V758z"/>
		</g>
	</g>
</g>
<g id="Иконка_7_">
	<g id="_x32__xA0_Изображение_7_">
	</g>
</g>
</svg>
